<?xml version="1.0" encoding="utf-8"?>
<!-- Generator: Adobe Illustrator 20.0.0, SVG Export Plug-In . SVG Version: 6.00 Build 0)  -->
<svg version="1.1" id="Ebene_1" xmlns="http://www.w3.org/2000/svg" xmlns:xlink="http://www.w3.org/1999/xlink" x="0px" y="0px"
	 width="24px" height="24px" viewBox="0 0 24 24" style="enable-background:new 0 0 24 24;" xml:space="preserve">
<g id="youtube_1_">
	<g>
		<path d="M11.4,9.8c0.1,0,0.3,0,0.3-0.1c0-0.1,0.2-0.1,0.2-0.2V6.4c0-0.1-0.2-0.1-0.2-0.2c0,0-0.2-0.1-0.3-0.1
			c-0.1,0-0.3,0-0.3,0.1c0,0-0.2,0.1-0.2,0.2v3.1c0,0.1,0.1,0.2,0.2,0.2C11.2,9.8,11.3,9.8,11.4,9.8z"/>
		<path d="M21.5,0h-19C1.1,0,0,1.1,0,2.5v19C0,22.9,1.1,24,2.5,24h19c1.4,0,2.5-1.1,2.5-2.5v-19C24,1.1,22.9,0,21.5,0z M14,5h1v4.5
			c0,0.1,0.1,0.2,0.2,0.2c0,0,0.3,0,0.4-0.1C15.6,9.5,16,9.5,16,9.4V5h1v6h-1v-0.3c0,0.1-0.4,0.2-0.5,0.2c-0.2,0.1-0.6,0.2-0.8,0.2
			c-0.3,0-0.4-0.1-0.6-0.3C14,10.6,14,10.3,14,9.9V5z M12.6,5.3C12.9,5.6,13,6,13,6.5v2.9c0,0.5-0.1,1-0.4,1.3
			c-0.3,0.3-0.7,0.5-1.2,0.5c-0.5,0-0.8-0.2-1.1-0.5C10,10.4,10,9.9,10,9.4v-3c0-0.5,0-0.9,0.3-1.2c0.3-0.3,0.6-0.4,1.2-0.4
			C12,4.8,12.3,4.9,12.6,5.3z M7.3,3L8,5.6L8.6,3h1.6L9,7.6V11H7.2l0-3.1L5.7,3H7.3z M19,17c0,1.7-1.3,3-3,3H8c-1.7,0-3-1.3-3-3v-2
			c0-1.7,1.3-3,3-3h8c1.7,0,3,1.3,3,3V17z"/>
	</g>
	<g>
		<path d="M16,19c-0.3,0-0.6-0.1-0.7-0.3c-0.2-0.2-0.3-0.5-0.3-0.9v-1.9c0-0.3,0.1-0.6,0.3-0.8c0.2-0.2,0.5-0.3,0.8-0.3
			c0.3,0,0.6,0.1,0.7,0.3c0.2,0.2,0.3,0.5,0.3,0.8v1h-1.5v0.9c0,0.2,0,0.4,0.1,0.5c0.1,0.1,0.2,0.2,0.3,0.2c0.2,0,0.3,0,0.4-0.1
			c0.1-0.1,0.1-0.3,0.1-0.5v-0.2h0.6v0.2c0,0.4-0.1,0.7-0.3,0.9C16.6,18.9,16.4,19,16,19z M16.1,15.3c-0.2,0-0.3,0.1-0.3,0.2
			c-0.1,0.1-0.1,0.2-0.1,0.4v0.5h0.9v-0.5c0-0.2,0-0.3-0.1-0.4C16.3,15.4,16.2,15.3,16.1,15.3z M9.7,18.9c-0.1,0-0.3,0-0.3-0.1
			c-0.1-0.1-0.1-0.3-0.1-0.5v-3.4h0.6V18c0,0.1,0,0.2,0.1,0.3c0,0,0.1,0.1,0.2,0.1c0.1,0,0.2,0,0.3-0.1c0.1-0.1,0.2-0.1,0.3-0.2
			l0-3.1h0.6v4h-0.6v-0.6l-0.2,0.2c-0.1,0.2-0.3,0.3-0.4,0.4C9.9,18.9,9.8,18.9,9.7,18.9z M13.6,18.9c-0.1,0-0.3,0-0.4-0.1
			c-0.1-0.1-0.2-0.1-0.3-0.3l-0.2-0.2v0.5h-0.6v-5.4h0.6v2l0.2-0.2c0.1-0.1,0.2-0.2,0.3-0.3c0.1-0.1,0.2-0.1,0.3-0.1
			c0.2,0,0.4,0.1,0.5,0.2c0.1,0.2,0.2,0.4,0.2,0.7v2.3c0,0.3-0.1,0.5-0.2,0.6C14,18.8,13.8,18.9,13.6,18.9z M13.2,15.3
			c-0.1,0-0.1,0-0.2,0c-0.1,0-0.1,0.1-0.2,0.1l0,2.7c0.1,0.1,0.2,0.2,0.2,0.2c0.1,0,0.1,0.1,0.2,0.1c0.1,0,0.2,0,0.3-0.1
			c0.1-0.1,0.1-0.2,0.1-0.3v-2.2c0-0.2,0-0.3-0.1-0.4C13.5,15.4,13.3,15.3,13.2,15.3z M7.5,18.9V14H6.6v-0.6H9V14H8.1v4.8H7.5z"/>
	</g>
</g>
</svg>
